<?xml version="1.0" encoding="utf-8" standalone="no"?>
<!DOCTYPE svg PUBLIC "-//W3C//DTD SVG 1.1//EN"
  "http://www.w3.org/Graphics/SVG/1.1/DTD/svg11.dtd">
<svg xmlns:xlink="http://www.w3.org/1999/xlink" width="855.432pt" height="450.72pt" viewBox="0 0 855.432 450.72" xmlns="http://www.w3.org/2000/svg" version="1.1">
 <metadata>
  <rdf:RDF xmlns:dc="http://purl.org/dc/elements/1.1/" xmlns:cc="http://creativecommons.org/ns#" xmlns:rdf="http://www.w3.org/1999/02/22-rdf-syntax-ns#">
   <cc:Work>
    <dc:type rdf:resource="http://purl.org/dc/dcmitype/StillImage"/>
    <dc:date>2026-05-03T15:28:44.861681</dc:date>
    <dc:format>image/svg+xml</dc:format>
    <dc:creator>
     <cc:Agent>
      <dc:title>Matplotlib v3.10.9, https://matplotlib.org/</dc:title>
     </cc:Agent>
    </dc:creator>
   </cc:Work>
  </rdf:RDF>
 </metadata>
 <defs>
  <style type="text/css">*{stroke-linejoin: round; stroke-linecap: butt}</style>
 </defs>
 <g id="figure_1">
  <g id="patch_1">
   <path d="M 0 450.72 
L 855.432 450.72 
L 855.432 0 
L 0 0 
z
" style="fill: #fff6f3"/>
  </g>
  <g id="axes_1">
   <g id="patch_2">
    <path d="M 346.144799 131.219713 
C 360.394124 131.219713 374.061751 125.558396 384.137545 115.482602 
C 394.213339 105.406808 399.874656 91.739181 399.874656 77.489857 
C 399.874656 63.240532 394.213339 49.572905 384.137545 39.497111 
C 374.061751 29.421317 360.394124 23.76 346.144799 23.76 
C 331.895475 23.76 318.227848 29.421317 308.152054 39.497111 
C 298.07626 49.572905 292.414943 63.240532 292.414943 77.489857 
C 292.414943 91.739181 298.07626 105.406808 308.152054 115.482602 
C 318.227848 125.558396 331.895475 131.219713 346.144799 131.219713 
z
" clip-path="url(#pf49d8e1f1c)" style="fill: #ff8c73; fill-opacity: 0.88; stroke: #c44536; stroke-width: 2; stroke-linejoin: miter"/>
   </g>
   <g id="patch_3">
    <path d="M 429.517594 182.206433 
C 442.095724 182.206433 454.160379 177.209089 463.05446 168.315009 
C 471.94854 159.420928 476.945884 147.356273 476.945884 134.778143 
C 476.945884 122.200013 471.94854 110.135358 463.05446 101.241277 
C 454.160379 92.347197 442.095724 87.349853 429.517594 87.349853 
C 416.939465 87.349853 404.874809 92.347197 395.980728 101.241277 
C 387.086648 110.135358 382.089304 122.200013 382.089304 134.778143 
C 382.089304 147.356273 387.086648 159.420928 395.980728 168.315009 
C 404.874809 177.209089 416.939465 182.206433 429.517594 182.206433 
z
" clip-path="url(#pf49d8e1f1c)" style="fill: #ff8c73; fill-opacity: 0.88; stroke: #c44536; stroke-width: 2; stroke-linejoin: miter"/>
   </g>
   <g id="patch_4">
    <path d="M 510.529454 128.770296 
C 524.453982 128.770296 537.810072 123.238022 547.6562 113.391894 
C 557.502328 103.545766 563.034602 90.189676 563.034602 76.265148 
C 563.034602 62.34062 557.502328 48.98453 547.6562 39.138402 
C 537.810072 29.292274 524.453982 23.76 510.529454 23.76 
C 496.604926 23.76 483.248836 29.292274 473.402708 39.138402 
C 463.55658 48.98453 458.024306 62.34062 458.024306 76.265148 
C 458.024306 90.189676 463.55658 103.545766 473.402708 113.391894 
C 483.248836 123.238022 496.604926 128.770296 510.529454 128.770296 
z
" clip-path="url(#pf49d8e1f1c)" style="fill: #ff8c73; fill-opacity: 0.88; stroke: #c44536; stroke-width: 2; stroke-linejoin: miter"/>
   </g>
   <g id="patch_5">
    <path d="M 389.323404 361.669187 
C 399.590702 361.669187 409.438861 357.589946 416.698937 350.329869 
C 423.959014 343.069793 428.038255 333.221634 428.038255 322.954336 
C 428.038255 312.687037 423.959014 302.838878 416.698937 295.578802 
C 409.438861 288.318726 399.590702 284.239485 389.323404 284.239485 
C 379.056105 284.239485 369.207946 288.318726 361.94787 295.578802 
C 354.687794 302.838878 350.608553 312.687037 350.608553 322.954336 
C 350.608553 333.221634 354.687794 343.069793 361.94787 350.329869 
C 369.207946 357.589946 379.056105 361.669187 389.323404 361.669187 
z
" clip-path="url(#pf49d8e1f1c)" style="fill: #ff8c73; fill-opacity: 0.88; stroke: #c44536; stroke-width: 2; stroke-linejoin: miter"/>
   </g>
   <g id="patch_6">
    <path d="M 532.664715 359.566832 
C 540.062197 359.566832 547.157694 356.627781 552.388503 351.396971 
C 557.619313 346.166162 560.558364 339.070665 560.558364 331.673183 
C 560.558364 324.275701 557.619313 317.180205 552.388503 311.949395 
C 547.157694 306.718585 540.062197 303.779534 532.664715 303.779534 
C 525.267233 303.779534 518.171737 306.718585 512.940927 311.949395 
C 507.710117 317.180205 504.771066 324.275701 504.771066 331.673183 
C 504.771066 339.070665 507.710117 346.166162 512.940927 351.396971 
C 518.171737 356.627781 525.267233 359.566832 532.664715 359.566832 
z
" clip-path="url(#pf49d8e1f1c)" style="fill: #ff8c73; fill-opacity: 0.88; stroke: #c44536; stroke-width: 2; stroke-linejoin: miter"/>
   </g>
   <g id="patch_7">
    <path d="M 466.681738 361.74618 
C 476.930148 361.74618 486.760189 357.674444 494.006908 350.427724 
C 501.253628 343.181004 505.325364 333.350964 505.325364 323.102554 
C 505.325364 312.854145 501.253628 303.024104 494.006908 295.777385 
C 486.760189 288.530665 476.930148 284.458929 466.681738 284.458929 
C 456.433329 284.458929 446.603288 288.530665 439.356569 295.777385 
C 432.109849 303.024104 428.038113 312.854145 428.038113 323.102554 
C 428.038113 333.350964 432.109849 343.181004 439.356569 350.427724 
C 446.603288 357.674444 456.433329 361.74618 466.681738 361.74618 
z
" clip-path="url(#pf49d8e1f1c)" style="fill: #ff8c73; fill-opacity: 0.88; stroke: #c44536; stroke-width: 2; stroke-linejoin: miter"/>
   </g>
   <g id="patch_8">
    <path d="M 510.474389 224.957059 
C 522.45878 224.957059 533.953934 220.19561 542.428178 211.721366 
C 550.902422 203.247122 555.663871 191.751968 555.663871 179.767577 
C 555.663871 167.783186 550.902422 156.288031 542.428178 147.813787 
C 533.953934 139.339543 522.45878 134.578094 510.474389 134.578094 
C 498.489998 134.578094 486.994844 139.339543 478.5206 147.813787 
C 470.046356 156.288031 465.284907 167.783186 465.284907 179.767577 
C 465.284907 191.751968 470.046356 203.247122 478.5206 211.721366 
C 486.994844 220.19561 498.489998 224.957059 510.474389 224.957059 
z
" clip-path="url(#pf49d8e1f1c)" style="fill: #ff8c73; fill-opacity: 0.88; stroke: #c44536; stroke-width: 2; stroke-linejoin: miter"/>
   </g>
   <g id="patch_9">
    <path d="M 595.189353 92.013293 
C 604.239846 92.013293 612.920872 88.417495 619.320537 82.01783 
C 625.720201 75.618165 629.316 66.937139 629.316 57.886647 
C 629.316 48.836154 625.720201 40.155128 619.320537 33.755463 
C 612.920872 27.355799 604.239846 23.76 595.189353 23.76 
C 586.138861 23.76 577.457835 27.355799 571.05817 33.755463 
C 564.658505 40.155128 561.062707 48.836154 561.062707 57.886647 
C 561.062707 66.937139 564.658505 75.618165 571.05817 82.01783 
C 577.457835 88.417495 586.138861 92.013293 595.189353 92.013293 
z
" clip-path="url(#pf49d8e1f1c)" style="fill: #ff8c73; fill-opacity: 0.88; stroke: #c44536; stroke-width: 2; stroke-linejoin: miter"/>
   </g>
   <g id="patch_10">
    <path d="M 428.810911 87.353005 
C 437.243442 87.353005 445.331734 84.002725 451.294434 78.040025 
C 457.257134 72.077325 460.607414 63.989033 460.607414 55.556502 
C 460.607414 47.123971 457.257134 39.03568 451.294434 33.07298 
C 445.331734 27.11028 437.243442 23.76 428.810911 23.76 
C 420.37838 23.76 412.290089 27.11028 406.327389 33.07298 
C 400.364689 39.03568 397.014409 47.123971 397.014409 55.556502 
C 397.014409 63.989033 400.364689 72.077325 406.327389 78.040025 
C 412.290089 84.002725 420.37838 87.353005 428.810911 87.353005 
z
" clip-path="url(#pf49d8e1f1c)" style="fill: #ff8c73; fill-opacity: 0.88; stroke: #c44536; stroke-width: 2; stroke-linejoin: miter"/>
   </g>
   <g id="patch_11">
    <path d="M 323.145112 359.3833 
C 330.570344 359.3833 337.692458 356.433224 342.94289 351.182792 
C 348.193322 345.93236 351.143398 338.810246 351.143398 331.385014 
C 351.143398 323.959782 348.193322 316.837668 342.94289 311.587236 
C 337.692458 306.336804 330.570344 303.386728 323.145112 303.386728 
C 315.719879 303.386728 308.597766 306.336804 303.347334 311.587236 
C 298.096902 316.837668 295.146826 323.959782 295.146826 331.385014 
C 295.146826 338.810246 298.096902 345.93236 303.347334 351.182792 
C 308.597766 356.433224 315.719879 359.3833 323.145112 359.3833 
z
" clip-path="url(#pf49d8e1f1c)" style="fill: #ff8c73; fill-opacity: 0.88; stroke: #c44536; stroke-width: 2; stroke-linejoin: miter"/>
   </g>
   <g id="patch_12">
    <path d="M 346.023808 224.075697 
C 358.336665 224.075697 370.146877 219.183747 378.853382 210.477242 
C 387.559886 201.770738 392.451836 189.960526 392.451836 177.647668 
C 392.451836 165.334811 387.559886 153.524599 378.853382 144.818095 
C 370.146877 136.11159 358.336665 131.21964 346.023808 131.21964 
C 333.710951 131.21964 321.900739 136.11159 313.194234 144.818095 
C 304.487729 153.524599 299.595779 165.334811 299.595779 177.647668 
C 299.595779 189.960526 304.487729 201.770738 313.194234 210.477242 
C 321.900739 219.183747 333.710951 224.075697 346.023808 224.075697 
z
" clip-path="url(#pf49d8e1f1c)" style="fill: #ff8c73; fill-opacity: 0.88; stroke: #c44536; stroke-width: 2; stroke-linejoin: miter"/>
   </g>
   <g id="patch_13">
    <path d="M 260.358269 92.244538 
C 269.439425 92.244538 278.149863 88.636557 284.57121 82.21521 
C 290.992557 75.793863 294.600538 67.083425 294.600538 58.002269 
C 294.600538 48.921113 290.992557 40.210675 284.57121 33.789328 
C 278.149863 27.367981 269.439425 23.76 260.358269 23.76 
C 251.277113 23.76 242.566675 27.367981 236.145328 33.789328 
C 229.723981 40.210675 226.116 48.921113 226.116 58.002269 
C 226.116 67.083425 229.723981 75.793863 236.145328 82.21521 
C 242.566675 88.636557 251.277113 92.244538 260.358269 92.244538 
z
" clip-path="url(#pf49d8e1f1c)" style="fill: #ff8c73; fill-opacity: 0.88; stroke: #c44536; stroke-width: 2; stroke-linejoin: miter"/>
   </g>
   <g id="patch_14">
    <path d="M 428.253032 292.683856 
C 442.903542 292.683856 456.955978 286.863147 467.315453 276.503672 
C 477.674928 266.144197 483.495637 252.091761 483.495637 237.441251 
C 483.495637 222.790741 477.674928 208.738305 467.315453 198.37883 
C 456.955978 188.019355 442.903542 182.198645 428.253032 182.198645 
C 413.602522 182.198645 399.550086 188.019355 389.190611 198.37883 
C 378.831136 208.738305 373.010427 222.790741 373.010427 237.441251 
C 373.010427 252.091761 378.831136 266.144197 389.190611 276.503672 
C 399.550086 286.863147 413.602522 292.683856 428.253032 292.683856 
z
" clip-path="url(#pf49d8e1f1c)" style="fill: #ff8c73; fill-opacity: 0.88; stroke: #c44536; stroke-width: 2; stroke-linejoin: miter"/>
   </g>
   <g id="patch_15">
    <path d="M 336.227616 304.646486 
C 346.984802 304.646486 357.30285 300.37261 364.90933 292.766131 
C 372.515809 285.159652 376.789684 274.841604 376.789684 264.084417 
C 376.789684 253.327231 372.515809 243.009183 364.90933 235.402704 
C 357.30285 227.796225 346.984802 223.522349 336.227616 223.522349 
C 325.47043 223.522349 315.152382 227.796225 307.545902 235.402704 
C 299.939423 243.009183 295.665548 253.327231 295.665548 264.084417 
C 295.665548 274.841604 299.939423 285.159652 307.545902 292.766131 
C 315.152382 300.37261 325.47043 304.646486 336.227616 304.646486 
z
" clip-path="url(#pf49d8e1f1c)" style="fill: #ff8c73; fill-opacity: 0.88; stroke: #c44536; stroke-width: 2; stroke-linejoin: miter"/>
   </g>
   <g id="patch_16">
    <path d="M 264.884218 337.542891 
C 275.165669 337.542891 285.027404 333.458027 292.297488 326.187943 
C 299.567572 318.917859 303.652436 309.056125 303.652436 298.774673 
C 303.652436 288.493222 299.567572 278.631488 292.297488 271.361404 
C 285.027404 264.091319 275.165669 260.006455 264.884218 260.006455 
C 254.602766 260.006455 244.741032 264.091319 237.470948 271.361404 
C 230.200864 278.631488 226.116 288.493222 226.116 298.774673 
C 226.116 309.056125 230.200864 318.917859 237.470948 326.187943 
C 244.741032 333.458027 254.602766 337.542891 264.884218 337.542891 
z
" clip-path="url(#pf49d8e1f1c)" style="fill: #ff8c73; fill-opacity: 0.88; stroke: #c44536; stroke-width: 2; stroke-linejoin: miter"/>
   </g>
   <g id="patch_17">
    <path d="M 268.525608 176.627393 
C 279.772768 176.627393 290.560787 172.158849 298.51373 164.205907 
C 306.466673 156.252964 310.935217 145.464945 310.935217 134.217785 
C 310.935217 122.970625 306.466673 112.182606 298.51373 104.229663 
C 290.560787 96.276721 279.772768 91.808177 268.525608 91.808177 
C 257.278449 91.808177 246.490429 96.276721 238.537487 104.229663 
C 230.584544 112.182606 226.116 122.970625 226.116 134.217785 
C 226.116 145.464945 230.584544 156.252964 238.537487 164.205907 
C 246.490429 172.158849 257.278449 176.627393 268.525608 176.627393 
z
" clip-path="url(#pf49d8e1f1c)" style="fill: #ff8c73; fill-opacity: 0.88; stroke: #c44536; stroke-width: 2; stroke-linejoin: miter"/>
   </g>
   <g id="patch_18">
    <path d="M 584.649902 426.96 
C 596.49549 426.96 607.857507 422.253698 616.233603 413.877603 
C 624.609698 405.501507 629.316 394.13949 629.316 382.293902 
C 629.316 370.448314 624.609698 359.086297 616.233603 350.710201 
C 607.857507 342.334106 596.49549 337.627804 584.649902 337.627804 
C 572.804314 337.627804 561.442297 342.334106 553.066201 350.710201 
C 544.690106 359.086297 539.983804 370.448314 539.983804 382.293902 
C 539.983804 394.13949 544.690106 405.501507 553.066201 413.877603 
C 561.442297 422.253698 572.804314 426.96 584.649902 426.96 
z
" clip-path="url(#pf49d8e1f1c)" style="fill: #ff8c73; fill-opacity: 0.88; stroke: #c44536; stroke-width: 2; stroke-linejoin: miter"/>
   </g>
   <g id="patch_19">
    <path d="M 427.946482 426.96 
C 437.990121 426.96 447.623752 422.96962 454.725678 415.867694 
C 461.827604 408.765768 465.817984 399.132137 465.817984 389.088498 
C 465.817984 379.044858 461.827604 369.411227 454.725678 362.309301 
C 447.623752 355.207376 437.990121 351.216995 427.946482 351.216995 
C 417.902842 351.216995 408.269211 355.207376 401.167285 362.309301 
C 394.06536 369.411227 390.074979 379.044858 390.074979 389.088498 
C 390.074979 399.132137 394.06536 408.765768 401.167285 415.867694 
C 408.269211 422.96962 417.902842 426.96 427.946482 426.96 
z
" clip-path="url(#pf49d8e1f1c)" style="fill: #ff8c73; fill-opacity: 0.88; stroke: #c44536; stroke-width: 2; stroke-linejoin: miter"/>
   </g>
   <g id="patch_20">
    <path d="M 352.743774 426.96 
C 362.644636 426.96 372.141318 423.026346 379.142285 416.025379 
C 386.143252 409.024412 390.076906 399.52773 390.076906 389.626867 
C 390.076906 379.726005 386.143252 370.229323 379.142285 363.228356 
C 372.141318 356.227389 362.644636 352.293735 352.743774 352.293735 
C 342.842911 352.293735 333.346229 356.227389 326.345262 363.228356 
C 319.344295 370.229323 315.410641 379.726005 315.410641 389.626867 
C 315.410641 399.52773 319.344295 409.024412 326.345262 416.025379 
C 333.346229 423.026346 342.842911 426.96 352.743774 426.96 
z
" clip-path="url(#pf49d8e1f1c)" style="fill: #ff8c73; fill-opacity: 0.88; stroke: #c44536; stroke-width: 2; stroke-linejoin: miter"/>
   </g>
   <g id="patch_21">
    <path d="M 503.067705 426.96 
C 512.947124 426.96 522.423237 423.034865 529.409041 416.049062 
C 536.394844 409.063258 540.319979 399.587145 540.319979 389.707726 
C 540.319979 379.828308 536.394844 370.352195 529.409041 363.366391 
C 522.423237 356.380587 512.947124 352.455453 503.067705 352.455453 
C 493.188287 352.455453 483.712174 356.380587 476.72637 363.366391 
C 469.740566 370.352195 465.815432 379.828308 465.815432 389.707726 
C 465.815432 399.587145 469.740566 409.063258 476.72637 416.049062 
C 483.712174 423.034865 493.188287 426.96 503.067705 426.96 
z
" clip-path="url(#pf49d8e1f1c)" style="fill: #ff8c73; fill-opacity: 0.88; stroke: #c44536; stroke-width: 2; stroke-linejoin: miter"/>
   </g>
   <g id="patch_22">
    <path d="M 270.934172 426.96 
C 282.82009 426.96 294.220791 422.237675 302.625405 413.833061 
C 311.030018 405.428448 315.752343 394.027746 315.752343 382.141828 
C 315.752343 370.25591 311.030018 358.855209 302.625405 350.450595 
C 294.220791 342.045982 282.82009 337.323657 270.934172 337.323657 
C 259.048254 337.323657 247.647552 342.045982 239.242939 350.450595 
C 230.838325 358.855209 226.116 370.25591 226.116 382.141828 
C 226.116 394.027746 230.838325 405.428448 239.242939 413.833061 
C 247.647552 422.237675 259.048254 426.96 270.934172 426.96 
z
" clip-path="url(#pf49d8e1f1c)" style="fill: #ff8c73; fill-opacity: 0.88; stroke: #c44536; stroke-width: 2; stroke-linejoin: miter"/>
   </g>
   <g id="patch_23">
    <path d="M 587.761998 260.705045 
C 598.782248 260.705045 609.352621 256.326654 617.145115 248.53416 
C 624.937608 240.741666 629.316 230.171294 629.316 219.151044 
C 629.316 208.130794 624.937608 197.560421 617.145115 189.767927 
C 609.352621 181.975434 598.782248 177.597042 587.761998 177.597042 
C 576.741748 177.597042 566.171375 181.975434 558.378882 189.767927 
C 550.586388 197.560421 546.207997 208.130794 546.207997 219.151044 
C 546.207997 230.171294 550.586388 240.741666 558.378882 248.53416 
C 566.171375 256.326654 576.741748 260.705045 587.761998 260.705045 
z
" clip-path="url(#pf49d8e1f1c)" style="fill: #ff8c73; fill-opacity: 0.88; stroke: #c44536; stroke-width: 2; stroke-linejoin: miter"/>
   </g>
   <g id="patch_24">
    <path d="M 590.716725 337.849116 
C 600.953372 337.849116 610.772131 333.782053 618.010534 326.543651 
C 625.248937 319.305248 629.316 309.486489 629.316 299.249841 
C 629.316 289.013194 625.248937 279.194435 618.010534 271.956032 
C 610.772131 264.717629 600.953372 260.650566 590.716725 260.650566 
C 580.480077 260.650566 570.661318 264.717629 563.422916 271.956032 
C 556.184513 279.194435 552.11745 289.013194 552.11745 299.249841 
C 552.11745 309.486489 556.184513 319.305248 563.422916 326.543651 
C 570.661318 333.782053 580.480077 337.849116 590.716725 337.849116 
z
" clip-path="url(#pf49d8e1f1c)" style="fill: #ff8c73; fill-opacity: 0.88; stroke: #c44536; stroke-width: 2; stroke-linejoin: miter"/>
   </g>
   <g id="patch_25">
    <path d="M 586.258214 177.610406 
C 597.677272 177.610406 608.630173 173.073566 616.704666 164.999073 
C 624.77916 156.924579 629.316 145.971678 629.316 134.55262 
C 629.316 123.133561 624.77916 112.180661 616.704666 104.106167 
C 608.630173 96.031674 597.677272 91.494834 586.258214 91.494834 
C 574.839155 91.494834 563.886255 96.031674 555.811761 104.106167 
C 547.737267 112.180661 543.200427 123.133561 543.200427 134.55262 
C 543.200427 145.971678 547.737267 156.924579 555.811761 164.999073 
C 563.886255 173.073566 574.839155 177.610406 586.258214 177.610406 
z
" clip-path="url(#pf49d8e1f1c)" style="fill: #ff8c73; fill-opacity: 0.88; stroke: #c44536; stroke-width: 2; stroke-linejoin: miter"/>
   </g>
   <g id="patch_26">
    <path d="M 519.794844 305.005365 
C 530.476964 305.005365 540.723009 300.761314 548.276408 293.207915 
C 555.829808 285.654515 560.073859 275.40847 560.073859 264.72635 
C 560.073859 254.04423 555.829808 243.798185 548.276408 236.244785 
C 540.723009 228.691386 530.476964 224.447335 519.794844 224.447335 
C 509.112724 224.447335 498.866678 228.691386 491.313279 236.244785 
C 483.75988 243.798185 479.515829 254.04423 479.515829 264.72635 
C 479.515829 275.40847 483.75988 285.654515 491.313279 293.207915 
C 498.866678 300.761314 509.112724 305.005365 519.794844 305.005365 
z
" clip-path="url(#pf49d8e1f1c)" style="fill: #ff8c73; fill-opacity: 0.88; stroke: #c44536; stroke-width: 2; stroke-linejoin: miter"/>
   </g>
   <g id="patch_27">
    <path d="M 267.833988 260.060527 
C 278.897728 260.060527 289.509816 255.664857 297.333061 247.841611 
C 305.156307 240.018366 309.551977 229.406279 309.551977 218.342539 
C 309.551977 207.278799 305.156307 196.666712 297.333061 188.843466 
C 289.509816 181.020221 278.897728 176.62455 267.833988 176.62455 
C 256.770249 176.62455 246.158161 181.020221 238.334916 188.843466 
C 230.51167 196.666712 226.116 207.278799 226.116 218.342539 
C 226.116 229.406279 230.51167 240.018366 238.334916 247.841611 
C 246.158161 255.664857 256.770249 260.060527 267.833988 260.060527 
z
" clip-path="url(#pf49d8e1f1c)" style="fill: #ff8c73; fill-opacity: 0.88; stroke: #c44536; stroke-width: 2; stroke-linejoin: miter"/>
   </g>
  </g>
 </g>
 <defs>
  <clipPath id="pf49d8e1f1c">
   <rect x="3.6" y="3.6" width="848.232" height="443.52"/>
  </clipPath>
 </defs>
</svg>
